<?xml version="1.0" encoding="utf-8"?>
<!-- Generator: Adobe Illustrator 16.0.0, SVG Export Plug-In . SVG Version: 6.00 Build 0)  -->
<!DOCTYPE svg PUBLIC "-//W3C//DTD SVG 1.1//EN" "http://www.w3.org/Graphics/SVG/1.1/DTD/svg11.dtd">
<svg version="1.1" id="Layer_1" xmlns="http://www.w3.org/2000/svg" xmlns:xlink="http://www.w3.org/1999/xlink" x="0px" y="0px"
	 width="240.75px" height="115px" viewBox="0 0 240.75 115" enable-background="new 0 0 240.75 115" xml:space="preserve">
<g>
	<path fill="#414142" d="M51.539,27.164c0.243,14.335-8.504,28.833-28.348,28.833c-6.966,0-15.308,0-22.273,0V-0.698
		c6.965,0,15.308,0,22.273,0C42.629-0.698,51.295,13.152,51.539,27.164z M11.528,45.711h11.663c12.878,0,17.98-9.396,17.737-18.628
		c-0.243-8.829-5.426-17.657-17.737-17.657H11.528V45.711z"/>
	<path fill="#414142" d="M90.337,16.068h9.476v39.93H90.5l-0.486-5.832c-2.268,4.698-8.504,6.965-12.959,7.046
		c-11.825,0.081-20.573-7.208-20.573-21.22c0-13.769,9.152-20.978,20.815-20.896c5.346,0,10.448,2.511,12.716,6.479L90.337,16.068z
		 M66.363,35.992c0,7.613,5.265,12.149,11.825,12.149c15.551,0,15.551-24.217,0-24.217C71.628,23.924,66.363,28.379,66.363,35.992z"
		/>
	<path fill="#414142" d="M117.312,16.068l0.729,4.617c3.078-4.941,7.208-5.67,11.258-5.67c4.131,0,8.1,1.62,10.286,3.807
		l-4.455,8.585c-2.025-1.701-3.888-2.592-7.127-2.592c-5.184,0-9.962,2.754-9.962,10.125v21.058h-9.881v-39.93H117.312z"/>
	<path fill="#414142" d="M151.736,39.556c0.647,4.941,4.94,8.504,11.905,8.504c3.646,0,8.424-1.377,10.691-3.726l6.317,6.236
		c-4.212,4.374-11.096,6.479-17.171,6.479c-13.769,0-21.949-8.504-21.949-21.301c0-12.149,8.261-20.896,21.22-20.896
		c13.364,0,21.706,8.262,20.167,24.703H151.736z M173.442,31.375c-0.648-5.184-4.698-7.775-10.367-7.775
		c-5.346,0-9.72,2.592-11.178,7.775H173.442z"/>
</g>
<path fill="#29AAE2" d="M224.172,0h-27.52c-0.52,0-7.52,0.14-7.52,0.14l0.21,10.24v38.18c0,3.91,3.42,7.1,7.59,7.1h27.24
	c1.04,0,14.09-0.33,14.09-0.33s0.08-13.33,0.08-13.84V12.17C238.342,4.38,231.972,0,224.172,0z M232.742,52h-38.55V40.49
	c0-10.95,9.93-14.21,19.31-14.21c3.61,0,10.2-0.62,10.2-6.12c0-5.17-4.69-7.62-10.811-7.62c-4.689,0-9.52,2.38-9.59,6.67h-8.9
	c0.06-10.07,9.58-14.42,18.35-14.42c9.52,0,19.859,3.88,19.859,15.16c0,12.11-9.109,14.42-19.109,14.42
	c-3.94,0-10.33,1.02-10.33,6.19v4.08h29.57V52z"/>
<g>
	<path fill="#414143" d="M35.204,96.619c-3.901,3.901-9.083,5.851-14.21,5.851c-13.151,0-20.005-9.195-20.061-19.727
		C0.821,72.322,7.62,62.571,20.994,62.571c5.127,0,10.309,1.95,14.21,5.851l-2.062,1.783c-3.344-3.344-7.746-4.959-12.148-4.959
		c-11.368,0-17.219,8.024-17.163,17.386c0.111,9.139,5.907,17.052,17.163,17.052c4.402,0,8.86-1.672,12.204-4.959L35.204,96.619z"/>
	<path fill="#414143" d="M39.883,88.315c0-8.749,6.241-14.321,13.987-14.321c7.746,0,13.987,5.573,13.987,14.321
		c0,8.749-6.241,14.099-13.987,14.099C46.124,102.414,39.883,97.064,39.883,88.315z M65.182,88.315
		c0-7.133-5.071-11.758-11.313-11.758s-11.312,4.625-11.312,11.758s5.071,11.424,11.312,11.424S65.182,95.448,65.182,88.315z"/>
	<path fill="#414143" d="M114.943,102.024V85.529c0-5.294-3.566-9.027-8.804-9.027c-5.238,0-8.86,3.901-8.86,9.194v16.328h-2.73
		V85.696c0-5.293-3.622-9.139-8.86-9.139s-8.805,3.845-8.805,9.139v16.328h-2.73V74.496h2.563l0.056,4.569
		c1.895-3.622,5.405-5.126,8.972-5.126c4.179,0,8.582,1.895,10.198,6.798c1.671-4.514,5.962-6.798,10.198-6.798
		c6.743,0,11.535,4.737,11.535,11.591v16.495H114.943z"/>
	<path fill="#414143" d="M124.805,113.503V74.496h2.675v6.52c2.173-4.179,6.576-6.91,11.925-6.91
		c7.467,0.279,13.374,5.294,13.374,14.154c0,9.25-6.241,14.266-13.987,14.266c-4.681,0-9.027-2.285-11.368-6.854v17.832H124.805z
		 M150.048,88.26c0-7.746-5.015-11.535-11.256-11.535c-6.408,0-11.145,4.848-11.145,11.591s4.848,11.591,11.145,11.591
		C145.033,99.906,150.048,96.005,150.048,88.26z"/>
	<path fill="#414143" d="M157.904,88.26c0-8.247,6.241-14.21,13.987-14.21c7.746,0,14.656,4.737,13.597,15.492H160.69
		c0.557,6.464,5.517,10.198,11.201,10.198c3.622,0,7.857-1.449,9.919-4.179l1.95,1.56c-2.675,3.511-7.467,5.294-11.869,5.294
		C164.145,102.414,157.904,97.009,157.904,88.26z M183.036,87.146c-0.056-6.799-4.514-10.588-11.145-10.588
		c-5.684,0-10.588,3.845-11.201,10.588H183.036z"/>
	<path fill="#414143" d="M197.69,66.193v8.303h9.362v2.285h-9.362v16.773c0,3.733,0.78,6.353,5.071,6.353
		c1.337,0,2.842-0.446,4.235-1.114l0.947,2.229c-1.728,0.836-3.455,1.393-5.183,1.393c-5.851,0-7.746-3.455-7.746-8.86V76.78h-5.851
		v-2.285h5.851v-8.024L197.69,66.193z"/>
	<path fill="#414143" d="M211.788,88.26c0-8.247,6.241-14.21,13.987-14.21c7.746,0,14.656,4.737,13.597,15.492h-24.797
		c0.557,6.464,5.517,10.198,11.201,10.198c3.622,0,7.857-1.449,9.919-4.179l1.95,1.56c-2.675,3.511-7.467,5.294-11.869,5.294
		C218.029,102.414,211.788,97.009,211.788,88.26z M236.92,87.146c-0.056-6.799-4.514-10.588-11.145-10.588
		c-5.684,0-10.588,3.845-11.201,10.588H236.92z"/>
</g>
</svg>
